<svg width="307" height="272" viewBox="0 0 307 272" fill="none" xmlns="http://www.w3.org/2000/svg">
<path d="M290.522 271.5C295.855 271.5 306.522 268.4 306.522 256V163.5C305.855 158.167 301.722 147.5 290.522 147.5L105.522 147.5C91.022 147.5 22.522 127.885 22.522 81.4847C22.522 35.0847 93.522 19.3333 129.022 20C157.689 20.3333 214.527 34.0146 215.522 68C217 118.5 77.022 106.5 77.522 84.5C77.8401 70.5036 98.522 66.5 116.522 66.5C134.522 66.5 136.856 68.8372 144.022 71.5C152.12 74.5092 155.022 76.5 159.022 76.5C163.022 76.5 168.022 72.4091 163.022 61.5C159.438 53.6799 136.522 46.5 113.522 47.5C90.522 48.5 57.022 59 57.022 85.5C57.022 110.5 100 120 127 122C153.736 123.98 227.049 122.039 228.479 122.001C228.523 121.999 228.521 122 228.566 122C231.049 121.964 235.009 119.965 236.022 116C236.913 112.512 242.686 77.9188 236.022 57.5C224.925 23.5 186.029 0.500031 125.022 0.5C66.7017 0.5 12.7784 25.4158 2.85112 57.8624C2.62257 58.6094 2.27378 59.293 2.06126 60.0447C-1.72545 73.439 0.506232 196.041 2.4126 207.939C2.48181 208.371 2.62034 208.679 2.83598 209.06C12.665 226.409 40.9192 261.002 74.0277 264.253C76.7759 264.523 79.022 262.261 79.022 259.5V232.828C79.022 231.958 79.2369 231.097 79.695 230.357C81.2108 227.909 83.9661 224.5 89.522 224.5C96.4599 224.5 99.7588 228.389 100.788 230.842C100.968 231.27 101.022 231.736 101.022 232.2V266.5C101.022 269.261 103.261 271.5 106.022 271.5H118.522C121.283 271.5 123.522 269.261 123.522 266.5V257.046C123.522 256.356 123.655 255.671 123.968 255.056C125.388 252.268 128.457 248.143 134.522 248.5C140.333 248.842 142.906 252.372 144.364 254.848C144.806 255.598 145.022 256.458 145.022 257.328V266.5C145.022 269.261 147.261 271.5 150.022 271.5H164.022C166.783 271.5 169.022 269.261 169.022 266.5V256.963C169.022 256.327 169.134 255.694 169.405 255.119C170.648 252.485 173.451 248.5 179.522 248.5C185.441 248.5 188.758 252.288 190.398 254.918C190.832 255.615 191.022 256.429 191.022 257.25V266.5C191.022 269.261 193.261 271.5 196.022 271.5H209.522C212.283 271.5 214.522 269.261 214.522 266.5V233.102C214.522 232.06 214.835 231.035 215.47 230.209C217.341 227.775 220.496 224.5 225.522 224.5C230.812 224.5 234.158 228.127 235.562 230.585C235.897 231.173 236.022 231.849 236.022 232.526V266.5C236.022 269.261 238.261 271.5 241.022 271.5H253.022C255.783 271.5 258.022 269.261 258.022 266.5V256.811C258.022 256.274 258.098 255.735 258.322 255.247C259.53 252.617 262.989 248.5 269.522 248.5C276.285 248.5 279.166 252.912 279.905 255.519C279.995 255.836 280.022 256.166 280.022 256.495V266.5C280.022 269.261 282.261 271.5 285.022 271.5H290.522Z" fill="#D9D9D9"/>
</svg>
