<svg width="229" height="274" viewBox="0 0 229 274" fill="none" xmlns="http://www.w3.org/2000/svg">
<path fill-rule="evenodd" clip-rule="evenodd" d="M22.4138 0.500041C22.1384 0.500041 21.8656 0.472757 21.5905 0.459509C19.0377 0.336565 11.2761 1.84714 6 7.50006C2.78785 10.9416 1.26025 17.3312 0.64421 19.9049C0.549046 20.3025 0.5 20.7067 0.5 21.1156V255.5C0.5 261 2.5 265 6 268C9.5 271 16 274 22 274H210.5C215.5 274 222 270 224 267.5C226 265 228.5 258.5 228.5 253.5V20.5C228 13.5 226 9.16667 224 6.5C222.125 4 219.5 0.500041 210.5 0.500041H22.4138ZM12.5 20.5C12.5 14 15.5 12 22 12H208.5C211.5 12 217.5 15 217.5 20.5C217.5 25.7623 216.585 92.8158 216.505 98.6022C216.501 98.8976 216.47 99.1567 216.413 99.4466C185.221 259.503 34.9893 261 23.5 261C18.5 261 12.5 257 12.5 253.5V20.5Z" fill="#D9D9D9"/>
<path d="M147.32 187C148.096 187 148.865 186.826 149.518 186.406C150.979 185.466 153.5 183.485 153.5 181C153.5 178.307 150.539 176.798 149.174 176.245C148.732 176.066 148.258 175.999 147.78 175.996L59.115 175.504C58.6043 175.501 58.0952 175.572 57.6281 175.779C56.28 176.374 53.5 177.97 53.5 181C53.5 183.91 56.0637 185.761 57.4611 186.554C58.0304 186.878 58.6813 187 59.3359 187H147.32Z" fill="#D9D9D9"/>
<path d="M55.5 137C55.5 134.097 57.3434 132.774 58.3546 132.267C58.7698 132.059 59.2357 132 59.7003 132H169.751C169.917 132 170.081 132.007 170.245 132.035C171.249 132.205 175 133.102 175 137C175 140.641 171.727 141.99 170.477 142.373C170.163 142.47 169.834 142.5 169.505 142.5H60.0263C59.3491 142.5 58.6708 142.372 58.118 141.981C57.0812 141.248 55.5 139.689 55.5 137Z" fill="#D9D9D9"/>
<path d="M80.2552 66.3171C80.7382 66.0814 81.274 66 81.8114 66H147.689C148.226 66 148.762 66.0812 149.242 66.3241C150.519 66.9716 153 68.6589 153 72C153 75.3411 150.519 77.0284 149.242 77.6759C148.762 77.9189 148.226 78 147.689 78H82.2956C81.4459 78 80.6034 77.7914 79.9276 77.2763C78.5965 76.2617 76.5 74.2303 76.5 71.5C76.5 68.5326 78.9766 66.9411 80.2552 66.3171Z" fill="#D9D9D9"/>
</svg>
