<svg width="279" height="280" viewBox="0 0 279 280" fill="none" xmlns="http://www.w3.org/2000/svg">
<path d="M133 0.499994C162.971 1.17133 161.5 50.8697 130 49.5C98.5002 48.1303 103.029 -0.171346 133 0.499994Z" fill="white"/>
<path d="M271.5 89L229 131C228.667 132.5 228.4 135.8 230 137C231.6 138.2 235 137.5 236.5 137L249 124.5L229 234.5C212 234 202 247 202 258.5C202 270 213.5 279.5 224 279.5C234.5 279.5 244.5 272 246 260.5C247.2 251.3 240.167 241.333 236.5 237.5L262.5 111.5L278 95.5C278.667 94.3333 279.6 91.5 278 89.5C276.4 87.5 273 88.3333 271.5 89Z" fill="white"/>
<path d="M91.5 175C91 170 74 158 74 158C72 161.667 69 170.4 69 174L24.5 172C24.5 172 17.5 174.5 17.5 183C17.5 190.5 25.5 194 25.5 194L78.5 197C78.5 197 92 180 91.5 175Z" fill="white"/>
<path fill-rule="evenodd" clip-rule="evenodd" d="M91 84.5C87.1667 84.6667 75.7 86.8 70.5 90C64 94 57.5 118.5 51.5 123.5C46.7 127.5 40.1667 127.667 37 125.5C34.3333 123.833 29.8 116.5 33 108.5C36.2 100.5 45 81 54 69C68 60.5 85.4387 52.0144 111.5 52C133.443 51.9878 145.5 73 158.5 96.5H193.5L193.551 96.5202C196.901 97.8603 203.602 100.54 204 108.5C204.4 116.5 197.167 119.667 193.5 121C193.5 121 149.5 122.5 148 121C146.5 119.5 135 105.3 133 104.5C130.5 103.5 125 114 121 140.5C129.895 150.959 144.384 155.452 148 166C154 183.5 167.5 220 160.5 239L196.5 237.5C194 240.833 189.1 249.7 189.5 258.5C189.9 267.3 194.333 276.167 196.5 279.5H11C7.5 278 0.5 272.8 0.5 264C0.5 255.2 7.5 249 11 247L146.5 240C141 234.167 131.6 212.2 128 181C111.833 169 77.8 145.1 77 141.5C76 137 76.5 122.5 91 84.5ZM17 257.5C20.5 257.5 23 261 23 263.5C23 266 20.5 268.5 17 268.5C13.4825 268.5 11.5 266 11.5 263.5C11.5 261 12.5 257.5 17 257.5Z" fill="white"/>
</svg>
