<svg width="270" height="273" viewBox="0 0 270 273" fill="none" xmlns="http://www.w3.org/2000/svg">
<path d="M161 64.5C161 100.122 132.122 129 96.5 129C60.8776 129 32 100.122 32 64.5C32 28.8776 60.8776 0 96.5 0C132.122 0 161 28.8776 161 64.5Z" fill="#D9D9D9"/>
<path d="M258 202C258 208.472 263.273 216.698 266.5 221C269.5 225 271 229 267.5 236C264.118 242.764 259.725 241.508 254.996 241.947C254.666 241.978 254.328 241.986 253.997 241.961C241.846 241.033 236.224 242.239 233 244.5C229.732 246.792 224.161 251.5 222 258C218.661 266 220.5 272.5 208 272.5C191.786 272.5 196.057 266.224 192.686 258.415C192.567 258.139 192.413 257.877 192.239 257.632C187.545 251.042 181.719 244.434 178 242.931C174.196 241.394 167.629 241.758 161.5 241.673C155.237 241.587 152.25 241 148.5 235C144.75 229 144.864 225.5 148.5 221.5C153.5 216 156 208.381 156 201.5C154.5 184.5 150.5 184 147 177.5C145 173.785 145.87 170.595 148.685 165.5C151.5 160.405 153.363 159.061 159.5 159.5C173.5 160.5 178.5 160 186 153.5C192.5 147.867 195.5 142 197 135C197.857 131 203 130 208 130C213 130 217.989 130.909 218.5 135C220 147 224.928 152 228.5 154.5C233.5 158 247.024 159.677 256.5 159C263.5 158.5 263.139 160 266.5 165.5C269.861 171 270.035 176.464 266.5 180C260 186.5 258 194.446 258 202ZM186.803 202C186.803 213.707 196.293 220 208 220C219.707 220 227 213.707 227 202C227 190.293 219.707 180.803 208 180.803C196.293 180.803 186.803 190.293 186.803 202Z" fill="#D9D9D9"/>
<path d="M130.263 157.545C130.088 157.509 129.911 157.5 129.732 157.499L18.449 157.002C18.1502 157.001 17.8535 157.023 17.562 157.088C11.841 158.379 2.46201 165.664 0.999974 172C-0.500013 178.5 0.999974 181.5 0.999974 206.5C0.999974 231.5 41.5 258 90 258C112.865 258 130.485 255.572 138.169 253.108C138.394 253.036 138.61 252.951 138.796 252.805C139.091 252.575 139.5 252.14 139.5 251.5C139.5 250.557 138.165 249.168 138.014 249.014C138.004 249.004 137.996 248.996 137.986 248.986C127.831 238.99 110.357 213.548 129.421 167.688C129.473 167.565 129.529 167.443 129.589 167.324C130.104 166.305 132.657 161.149 132.5 159.5C132.369 158.123 130.878 157.673 130.263 157.545Z" fill="#D9D9D9"/>
</svg>
